<?xml version="1.0" encoding="utf-8"?>
<!-- Generator: Adobe Illustrator 22.0.0, SVG Export Plug-In . SVG Version: 6.00 Build 0)  -->
<svg version="1.1" id="Layer_1" xmlns="http://www.w3.org/2000/svg" xmlns:xlink="http://www.w3.org/1999/xlink" x="0px" y="0px"
	 viewBox="0 0 100 100" style="enable-background:new 0 0 100 100;" xml:space="preserve">
<style type="text/css">
	.st0{fill:#EA5948;}
</style>
<g>
	<path class="st0" d="M42.8,23.6c5,2.6,14.5,7.7,14.5,7.7c15.7,9.8,34.8-3.1,34.8-3.1l0,0C84.3,12.3,68.2,1.9,49.3,1.9
		C36.4,1.9,24.7,7,16,15.2C29.6,15.3,42.8,23.6,42.8,23.6z"/>
	<path class="st0" d="M92.7,29.2c-22.5,22-42.2,7.3-42.2,7.3c-18.7-12.2-31.1-7.9-31.1-7.9C0.7,33.4,1.2,52.5,1.6,57.4
		c3.5,23.2,23.5,41,47.7,41c26.6,0,48.2-21.6,48.2-48.2C97.5,42.6,95.7,35.5,92.7,29.2z"/>
</g>
</svg>
