<?xml version="1.0" encoding="utf-8"?>
<!-- Generator: Adobe Illustrator 22.0.0, SVG Export Plug-In . SVG Version: 6.00 Build 0)  -->
<svg version="1.1" id="Layer_1" xmlns="http://www.w3.org/2000/svg" xmlns:xlink="http://www.w3.org/1999/xlink" x="0px" y="0px"
	 viewBox="0 0 142.8 45.7" style="enable-background:new 0 0 142.8 45.7;" xml:space="preserve">
<style type="text/css">
	.st0{fill:#ECC200;}
</style>
<title>LOGO1</title>
<g>
	<g>
		<path class="st0" d="M20.5,41.5L7.3,5.6L3.7,5V4h13.4v1l-4.3,0.5l10.1,27.4l9.9-25.9L27.5,5V4h9.8v1L34,7L20.9,41.5H20.5z"/>
		<path class="st0" d="M21.9,43h-2.4L6.2,7L2.2,6.3V2.5h16.4v3.8l-3.7,0.5l8,21.9l7.9-20.8L26,6V2.5h12.8v3.4L35.2,8L21.9,43z
			 M8.9,5.5l11.8,32.2l1.2-3.1L11.2,5.5H8.9z M32.8,5.5l0.4,0.2l0.3-0.2H32.8z"/>
	</g>
	<g>
		<path class="st0" d="M41.8,40.6v-1l4.2-0.7V5.6L41.8,5V4h13.5v1l-4.2,0.6v33.3l4.2,0.7v1H41.8z"/>
		<path class="st0" d="M56.8,42.1H40.3v-3.7l4.2-0.7V6.9l-4.2-0.6V2.5h16.5v3.8l-4.2,0.6v30.7l4.2,0.7V42.1z M47.5,39.1h2V5.5h-2
			V39.1z"/>
	</g>
	<path class="st0" d="M59.1,41.9v-1l4.5-0.7v-36l-4.5-0.7V2.3h29.7v11.3h-1.3L83.7,3.6H69.1v17.8h6.4l2.9-7.2h1.3v15.6h-1.3l-3-7.3
		h-6.4v18.1h15.5l4.1-10.9h1.3v12.1H59.1z"/>
	<path class="st0" d="M115.3,42.3L100.5,4.1v34.7l4.7,2v1H94.7v-1l4.6-2V4.1l-4.5-0.7V2.3h10.9L118.1,34l12.6-31.7h10v1.1l-4.5,0.7
		v36l4.5,0.7v1h-14.5v-1l4.5-0.7V5.6l-14.6,36.8H115.3z"/>
</g>
</svg>
