<svg id="Layer_1" data-name="Layer 1" xmlns="http://www.w3.org/2000/svg" viewBox="0 0 107.5 119.5"><defs><style>.cls-1{fill:#ecc200;}</style></defs><title>logo-icon</title><g id="_Group_" data-name="&lt;Group&gt;"><path class="cls-1" d="M59.3,37.92h0a5.9,5.9,0,0,0-1.24-9.3l-6.13-3.51a5.9,5.9,0,0,0-7.11.95h0a5.91,5.91,0,0,0,1.24,9.3l6.14,3.5A5.89,5.89,0,0,0,59.3,37.92Z"/><path class="cls-1" d="M104.3,55.07,75.41,38.54a5.92,5.92,0,0,0-7.11,1h0a5.91,5.91,0,0,0,1.25,9.3l19.76,11.3-77.12,43.1.44-86.95,16.12,9.22a5.85,5.85,0,0,0,7-.95l.08-.08a5.84,5.84,0,0,0-1.23-9.21L9.72,1a6.07,6.07,0,0,0-6,0A5.86,5.86,0,0,0,.7,6L.14,113.3v0a5.92,5.92,0,0,0,3,5.07,6.19,6.19,0,0,0,3,.8,6,6,0,0,0,3-.78l95.12-53.16a5.84,5.84,0,0,0,3-5.09v0A5.87,5.87,0,0,0,104.3,55.07Z"/></g></svg>